<svg xmlns="http://www.w3.org/2000/svg" xmlns:xlink="http://www.w3.org/1999/xlink" viewBox="0 0 379.5 174.15"><defs><style>.cls-1{fill:url(#linear-gradient);}.cls-2{fill:url(#linear-gradient-2);}.cls-3{fill:#1b9a12;}.cls-4{fill:url(#linear-gradient-3);}.cls-5{fill:url(#linear-gradient-4);}</style><linearGradient id="linear-gradient" x1="108.82" y1="140.44" x2="63.91" y2="38.98" gradientUnits="userSpaceOnUse"><stop offset="0" stop-color="#018c00"/><stop offset="0.49" stop-color="#48b231"/><stop offset="1" stop-color="#94db65"/></linearGradient><linearGradient id="linear-gradient-2" x1="176.55" y1="48.49" x2="189.26" y2="96.16" gradientUnits="userSpaceOnUse"><stop offset="0" stop-color="#ebebeb"/><stop offset="0.01" stop-color="#eaeaea"/><stop offset="0.23" stop-color="#dcdcdc"/><stop offset="0.5" stop-color="#d4d4d4"/><stop offset="1" stop-color="#d2d2d2"/></linearGradient><linearGradient id="linear-gradient-3" x1="299.98" y1="36.36" x2="294.13" y2="83.05" gradientUnits="userSpaceOnUse"><stop offset="0" stop-color="#92c5e8"/><stop offset="0.36" stop-color="#90c4e7"/><stop offset="0.54" stop-color="#88bfe5"/><stop offset="0.69" stop-color="#7bb7e1"/><stop offset="0.81" stop-color="#68acdb"/><stop offset="0.93" stop-color="#4f9ed3"/><stop offset="1" stop-color="#3a91cc"/></linearGradient><linearGradient id="linear-gradient-4" x1="267.96" y1="71.97" x2="217.11" y2="130.23" gradientUnits="userSpaceOnUse"><stop offset="0" stop-color="#e5e5e5"/><stop offset="0" stop-color="#dadada"/><stop offset="0" stop-color="#d2d2d2"/></linearGradient></defs><title>Asset 13</title><g id="Layer_2" data-name="Layer 2"><g id="logo"><path class="cls-1" d="M86.3,2.08,0,88.38l85.78,85.77,85.77-85.77Zm-52,90.46,52-52L134.64,92l-53,47.82Z"/><path class="cls-2" d="M187.15,0l-86.3,86.3,85.78,85.77L272.41,86.3Zm-52,90.46,52-52,50.95,52-51.47,51.46Z"/><polygon class="cls-3" points="130.49 95.14 115.93 108.65 133.78 126.15 153.64 106.29 135.68 89.94 130.49 95.14"/><path class="cls-4" d="M294.24,0,208,86.3l85.77,85.77L379.5,86.3ZM240.7,87.86l50.94-52,53.55,54.59-51.47,51.46Z"/><polyline class="cls-5" points="224.64 103.91 245.38 83.18 260.45 98.25 238.39 120.31"/></g></g></svg>